# xmcd CD database file
#
# Track frame offsets:
#	150
#	16482
#	31696
#	47265
#	68229
#	84388
#	100635
#	122406
#	145335
#	176727
#	192005
#	213035
#	242803
#	268792
#	288686
#	310234
#	338464
#
# Disc length: 4752 seconds
#
# Revision: 0
# Processed by: cddbd v1.5.2PL0 Copyright (c) Steve Scherf et al.
# Submitted via: CDex 1.51
#
DISCID=e2128e11
DTITLE=Various Artist - Best New Age [CD5)
DYEAR=2007
DGENRE=New Age
TTITLE0=Epilogue
TTITLE1=Behind The Waterfall
TTITLE2=Discovery
TTITLE3=Tubular Bells
TTITLE4=Moon Run
TTITLE5=Just To Love You
TTITLE6=Livin' In Peace
TTITLE7=The Wooing Of Etain
TTITLE8=Hillside View
TTITLE9=Midsummer Night
TTITLE10=Carnation Lily Lily Rose
TTITLE11=Gentle Earth
TTITLE12=Here Comes The Night
TTITLE13=Love Life
TTITLE14=Vivaldi
TTITLE15=The Waiting
TTITLE16=City Of Joy
EXTD=YEAR: 2007
EXTT0=
EXTT1=
EXTT2=
EXTT3=
EXTT4=
EXTT5=
EXTT6=
EXTT7=
EXTT8=
EXTT9=
EXTT10=
EXTT11=
EXTT12=
EXTT13=
EXTT14=
EXTT15=
EXTT16=
PLAYORDER=
